<svg width="80" height="36" viewBox="0 0 80 36" fill="none" xmlns="http://www.w3.org/2000/svg">
<path fill-rule="evenodd" clip-rule="evenodd" d="M23.3472 0.0635329C24.1158 -0.0693148 24.9472 0.0767352 25.5869 0.534688C26.0522 0.871346 26.4514 1.31527 26.6786 1.84666C27.0795 2.77247 26.9795 3.90869 26.391 4.73548C25.9588 5.32628 25.339 5.80486 24.615 5.96907C23.8621 6.1374 23.0332 6.04663 22.3695 5.63901C21.7233 5.24047 21.2026 4.61831 20.9894 3.88476C20.772 3.11986 20.8513 2.26336 21.2513 1.57107C21.6943 0.80616 22.4629 0.207933 23.3472 0.0635329Z" fill="#FFD000"/>
<path fill-rule="evenodd" clip-rule="evenodd" d="M8.5075 7.62101C6.29014 7.88341 4.19758 8.96352 2.6513 10.5643C1.15956 12.0438 0.321546 14.0909 0.12072 16.1637C-0.0602717 18.1143 0.113282 20.1409 0.915761 21.9471C1.78931 23.9547 3.45295 25.567 5.40832 26.5275C6.9794 27.2981 8.75956 27.5861 10.5001 27.4954C12.9215 27.4186 15.3571 26.6116 17.2092 25.0232C17.4954 24.7924 17.7549 24.5326 18.0147 24.2726C18.1375 24.1497 18.2603 24.0268 18.386 23.9068C17.8472 23.2558 17.2191 22.6468 16.4406 22.2912C15.7505 21.9702 14.9563 21.8827 14.2125 22.0412C13.8838 22.0965 13.5907 22.244 13.297 22.3917C13.0568 22.5126 12.8161 22.6337 12.5554 22.7046C10.7315 23.2731 8.61493 23.2203 6.97196 22.1666C6.09179 21.6385 5.37031 20.8018 5.14634 19.7836C7.18269 19.7832 9.2192 19.7833 11.2557 19.7834C13.9708 19.7836 16.686 19.7837 19.4009 19.7828C19.4016 19.273 19.4015 18.7631 19.4014 18.2531C19.4013 17.6413 19.4012 17.0295 19.4025 16.4178C19.3918 14.7106 18.9802 12.9737 18.024 11.5413C17.2406 10.3547 16.1182 9.41899 14.8761 8.7399C12.9472 7.6895 10.6753 7.36357 8.5075 7.62101ZM10.5001 12.0132C9.06204 11.868 7.57774 12.3029 6.45378 13.2146C5.70088 13.7922 5.20088 14.6702 5.09262 15.6133C8.18518 15.6158 11.2786 15.6166 14.3711 15.6133C14.2968 14.841 14.0455 14.0654 13.5306 13.4721C12.772 12.6016 11.6439 12.0991 10.5001 12.0132Z" fill="#8058C7"/>
<path fill-rule="evenodd" clip-rule="evenodd" d="M21.7562 7.81572C22.8636 7.80417 23.9694 8.18208 24.8413 8.86365C25.9727 9.73252 26.7025 11.1122 26.7554 12.5388C26.7603 17.5301 26.7512 22.5214 26.7603 27.5135C25.6529 27.511 24.5463 27.1446 23.676 26.4573C22.4975 25.5521 21.7719 24.0949 21.7554 22.6113C21.7554 17.6795 21.7554 12.7476 21.7562 7.81572Z" fill="#8058C7"/>
<path fill-rule="evenodd" clip-rule="evenodd" d="M28.5762 7.81903C30.3679 7.81656 32.1596 7.82068 33.9522 7.81738C35.6489 11.9777 37.3291 16.1447 39.0307 20.3026C40.7241 16.1414 42.4076 11.9761 44.1068 7.81738C45.8985 7.81986 47.6902 7.81821 49.482 7.81821C46.5588 14.9879 43.6225 22.1526 40.6944 29.3206C40.4894 29.8066 40.3125 30.305 40.0663 30.7728C39.3737 32.1458 38.2315 33.3043 36.8274 33.9496C35.3646 34.6378 33.6439 34.6733 32.1117 34.2004C30.9051 33.8324 29.8456 33.1038 28.9382 32.244C29.4423 31.3001 30.0555 30.3479 31.0092 29.8041C31.7233 29.4014 32.6084 29.2455 33.4026 29.4848C34.0762 29.6407 34.8398 29.5079 35.3621 29.0359C35.8464 28.5928 36.2134 27.9781 36.2423 27.3113C36.2134 26.9681 36.0423 26.6578 35.939 26.3344C34.7423 23.1568 33.4704 20.008 32.2109 16.8543C31.0059 13.8401 29.791 10.8291 28.5762 7.81903Z" fill="#8058C7"/>
<path fill-rule="evenodd" clip-rule="evenodd" d="M58.4357 7.54343C56.6729 7.58468 54.9175 7.99395 53.3307 8.76381C52.2902 9.25889 51.3373 9.91818 50.4522 10.6509C50.9563 11.4092 51.5671 12.1461 52.42 12.5232C53.3332 12.9539 54.4258 12.9233 55.3448 12.524C56.5679 12.0033 57.9282 11.7508 59.2514 11.9555C59.9745 12.0553 60.7142 12.3474 61.1737 12.9382C61.6365 13.5356 61.758 14.3211 61.7365 15.058C61.2683 15.0584 60.8001 15.0584 60.332 15.0584C59.8638 15.0584 59.3956 15.0584 58.9274 15.0588C58.6829 15.0601 58.4382 15.0591 58.1934 15.0581C57.2207 15.0539 56.2466 15.0498 55.282 15.1941C53.7886 15.4021 52.2844 15.8897 51.1134 16.8683C50.1803 17.639 49.5977 18.7835 49.434 19.9742C49.2324 21.4083 49.4225 22.9323 50.1439 24.2038C50.8952 25.5232 52.1696 26.5019 53.5861 27.0209C54.982 27.5283 56.5067 27.6067 57.9704 27.4145C59.572 27.1983 61.1158 26.5126 62.3026 25.4094C62.5208 25.7865 62.8001 26.133 63.1646 26.3781C64.1894 27.0984 65.4877 27.2841 66.7142 27.2288C66.7146 25.3457 66.7146 23.4626 66.7146 21.5794C66.7146 19.6942 66.7146 17.8089 66.715 15.9236C66.7547 14.2675 66.691 12.5281 65.8894 11.0346C65.4067 10.0807 64.6134 9.3117 63.7001 8.76711C62.1332 7.80582 60.2514 7.48732 58.4357 7.54343ZM57.5191 18.899C56.6258 18.9485 55.658 19.0401 54.9266 19.6062C54.3572 20.0435 54.2745 20.8455 54.4365 21.4982C54.5506 21.9686 54.8919 22.3597 55.3134 22.5866C56.191 23.0808 57.2382 23.1213 58.2208 23.0693C59.3968 22.9529 60.6043 22.4133 61.2828 21.4157C61.7334 20.7519 61.7254 19.9367 61.7178 19.1619C61.7169 19.0728 61.716 18.9843 61.7158 18.8966C61.3161 18.8966 60.9163 18.8961 60.5167 18.8957C59.5175 18.8947 58.5185 18.8937 57.5191 18.899Z" fill="#8058C7"/>
<path fill-rule="evenodd" clip-rule="evenodd" d="M68.7174 29.1019C69.4132 28.9286 70.1868 28.9575 70.8265 29.304C71.6166 29.7397 72.1413 30.6152 72.129 31.5195C72.138 33.0213 71.0289 34.3712 69.6422 34.8605C68.9347 35.0924 68.1339 35.1073 67.4455 34.8028C66.5496 34.3894 65.9496 33.419 66 32.4313C66.0265 30.8759 67.2488 29.5087 68.7174 29.1019Z" fill="#FFD000"/>
<path fill-rule="evenodd" clip-rule="evenodd" d="M73.7058 0.51572C75.7976 0.473638 77.891 0.487666 79.9819 0.426605C78.0009 8.0113 76.0075 15.5927 74.0215 23.1757C73.386 24.9952 71.8885 26.5786 69.9827 27.0523C69.2719 27.2511 68.5306 27.2387 67.8 27.2288C69.7637 18.3239 71.7348 9.41982 73.7058 0.51572Z" fill="#FFD000"/>
</svg>
